<?xml version="1.0" encoding="UTF-8"?>
<svg xmlns="http://www.w3.org/2000/svg" xmlns:xlink="http://www.w3.org/1999/xlink" viewBox="0 0 2101.27 2101.27">
  <defs>
    <style>
      .cls-1 {
        fill: #fc9118;
      }

      .cls-2 {
        fill: #fd9d18;
      }

      .cls-3 {
        fill: #fa7818;
      }

      .cls-4 {
        fill: #fda118;
      }

      .cls-5 {
        fill: #feb018;
      }

      .cls-6 {
        fill: #ffb618;
      }

      .cls-7 {
        fill: #ffba18;
      }

      .cls-8 {
        fill: #fa7c18;
      }

      .cls-9 {
        fill: #fc9818;
      }

      .cls-10 {
        fill: #fd9b18;
      }

      .cls-11 {
        fill: #fc9318;
      }

      .cls-12 {
        fill: #fc8f18;
      }

      .cls-13 {
        fill: #fc9618;
      }

      .cls-14 {
        fill: #fda018;
      }

      .cls-15 {
        fill: #feaf18;
      }

      .cls-16 {
        fill: #feb518;
      }

      .cls-17 {
        fill: #fd9a18;
      }

      .cls-18 {
        fill: #fb8318;
      }

      .cls-19 {
        fill: #c62012;
      }

      .cls-20 {
        fill: #fb8518;
      }

      .cls-21 {
        fill: #fa7618;
      }

      .cls-22 {
        fill: #fa7718;
      }

      .cls-23 {
        fill: #feb418;
      }

      .cls-24 {
        fill: #fc8b18;
      }

      .cls-25 {
        fill: #fea818;
      }

      .cls-26 {
        fill: #fb7f18;
      }

      .cls-27 {
        fill: none;
      }

      .cls-28 {
        fill: #ffb718;
      }

      .cls-29 {
        fill: #f04a02;
      }

      .cls-30 {
        fill: #f3b07b;
      }

      .cls-31 {
        fill: #ffb918;
      }

      .cls-32 {
        fill: #fb8918;
      }

      .cls-33 {
        fill: #fda518;
      }

      .cls-34 {
        fill: #ffbb18;
      }

      .cls-35 {
        fill: #fda618;
      }

      .cls-36 {
        fill: #fc8c18;
      }

      .cls-37 {
        fill: #fb8a18;
      }

      .cls-38 {
        fill: #fa7918;
      }

      .cls-39 {
        fill: #fea918;
      }

      .cls-40 {
        isolation: isolate;
      }

      .cls-41 {
        fill: #fa7a18;
      }

      .cls-42 {
        mix-blend-mode: overlay;
        opacity: .2;
      }

      .cls-43 {
        fill: #fa7b18;
      }

      .cls-44 {
        fill: #fb8118;
      }

      .cls-45 {
        fill: #fc8d18;
      }

      .cls-46 {
        fill: #ffb818;
      }

      .cls-47 {
        fill: #fc9518;
      }

      .cls-48 {
        fill: #fb8418;
      }

      .cls-49 {
        fill: #feae18;
      }

      .cls-50 {
        fill: #ffbc18;
      }

      .cls-51 {
        fill: #fc9718;
      }

      .cls-52 {
        fill: #feac18;
      }

      .cls-53 {
        fill: #fb7e18;
      }

      .cls-54 {
        fill: #fda318;
      }

      .cls-55 {
        fill: #fc8e18;
      }

      .cls-56 {
        fill: #fead18;
      }

      .cls-57 {
        fill: #feaa18;
      }

      .cls-58 {
        fill: #fda418;
      }

      .cls-59 {
        fill: #feb318;
      }

      .cls-60 {
        fill: #fd9c18;
      }

      .cls-61 {
        fill: #fb8818;
      }

      .cls-62 {
        fill: #feb218;
      }

      .cls-63 {
        fill: #fb8018;
      }

      .cls-64 {
        fill: #fc9018;
      }

      .cls-65 {
        fill: #fb8718;
      }

      .cls-66 {
        fill: #fb7d18;
      }

      .cls-67 {
        fill: url(#linear-gradient);
      }

      .cls-68 {
        fill: #fb8618;
      }

      .cls-69 {
        clip-path: url(#clippath);
      }

      .cls-70 {
        fill: #fc9418;
      }

      .cls-71 {
        fill: #fc9218;
      }

      .cls-72 {
        fill: #fda718;
      }

      .cls-73 {
        fill: #fd9f18;
      }

      .cls-74 {
        fill: #feb118;
      }

      .cls-75 {
        fill: #feab18;
      }

      .cls-76 {
        fill: #fd9e18;
      }

      .cls-77 {
        fill: #fb8218;
      }

      .cls-78 {
        fill: #fda218;
      }
    </style>
    <clipPath id="clippath">
      <path class="cls-27" d="M2087.74,1050.64c0,572.75-464.35,1037.11-1037.11,1037.11-199.57,0-385.89-56.36-544.08-154.12C210.67,1751.09,13.53,1423.9,13.53,1050.64,13.53,477.88,477.79,13.53,1050.64,13.53c179.74,0,348.83,45.72,496.28,126.26,322.22,175.86,540.83,517.83,540.83,910.85Z"/>
    </clipPath>
    <linearGradient id="linear-gradient" x1="307.94" y1="308.2" x2="1793.07" y2="1793.33" gradientUnits="userSpaceOnUse">
      <stop offset="0" stop-color="#f6e0a3"/>
      <stop offset="1" stop-color="#f56717"/>
    </linearGradient>
  </defs>
  <g class="cls-40">
    <g id="Layer_2">
      <g id="Layer_1-2" data-name="Layer_1">
        <g>
          <g>
            <g class="cls-69">
              <polygon class="cls-21" points="451.65 13.53 13.53 772.38 13.53 13.53 451.65 13.53"/>
              <polygon class="cls-21" points="485.87 13.53 13.53 831.66 13.53 772.38 451.65 13.53 485.87 13.53"/>
              <polygon class="cls-22" points="520.1 13.53 13.53 890.93 13.53 831.66 485.87 13.53 520.1 13.53"/>
              <polygon class="cls-3" points="554.32 13.53 13.53 950.2 13.53 890.93 520.1 13.53 554.32 13.53"/>
              <polygon class="cls-38" points="588.54 13.53 13.53 1009.48 13.53 950.2 554.32 13.53 588.54 13.53"/>
              <polygon class="cls-41" points="622.76 13.53 13.53 1068.75 13.53 1009.48 588.54 13.53 622.76 13.53"/>
              <polygon class="cls-43" points="656.98 13.53 13.53 1128.02 13.53 1068.75 622.76 13.53 656.98 13.53"/>
              <polygon class="cls-8" points="691.2 13.53 13.53 1187.29 13.53 1128.02 656.98 13.53 691.2 13.53"/>
              <polygon class="cls-66" points="725.42 13.53 13.53 1246.57 13.53 1187.29 691.2 13.53 725.42 13.53"/>
              <polygon class="cls-53" points="759.65 13.53 13.53 1305.84 13.53 1246.57 725.42 13.53 759.65 13.53"/>
              <polygon class="cls-26" points="793.87 13.53 13.53 1365.11 13.53 1305.84 759.65 13.53 793.87 13.53"/>
              <polygon class="cls-63" points="828.09 13.53 13.53 1424.39 13.53 1365.11 793.87 13.53 828.09 13.53"/>
              <polygon class="cls-44" points="862.31 13.53 13.53 1483.66 13.53 1424.39 828.09 13.53 862.31 13.53"/>
              <polygon class="cls-77" points="896.53 13.53 13.53 1542.93 13.53 1483.66 862.31 13.53 896.53 13.53"/>
              <polygon class="cls-18" points="930.75 13.53 13.53 1602.21 13.53 1542.93 896.53 13.53 930.75 13.53"/>
              <polygon class="cls-48" points="964.97 13.53 13.53 1661.48 13.53 1602.21 930.75 13.53 964.97 13.53"/>
              <polygon class="cls-20" points="999.19 13.53 32.81 1687.36 13.53 1676.23 13.53 1661.48 964.97 13.53 999.19 13.53"/>
              <polygon class="cls-68" points="1033.42 13.53 58.47 1702.18 32.81 1687.36 999.19 13.53 1033.42 13.53"/>
              <polygon class="cls-65" points="1067.64 13.53 84.14 1717 58.47 1702.18 1033.42 13.53 1067.64 13.53"/>
              <polygon class="cls-61" points="1101.86 13.53 109.81 1731.81 84.14 1717 1067.64 13.53 1101.86 13.53"/>
              <polygon class="cls-32" points="1136.08 13.53 135.47 1746.63 109.81 1731.81 1101.86 13.53 1136.08 13.53"/>
              <polygon class="cls-37" points="1170.3 13.53 161.14 1761.45 135.47 1746.63 1136.08 13.53 1170.3 13.53"/>
              <polygon class="cls-24" points="1204.52 13.53 186.8 1776.27 161.14 1761.45 1170.3 13.53 1204.52 13.53"/>
              <polygon class="cls-36" points="1238.74 13.53 212.47 1791.09 186.8 1776.27 1204.52 13.53 1238.74 13.53"/>
              <polygon class="cls-45" points="1272.97 13.53 238.14 1805.91 212.47 1791.09 1238.74 13.53 1272.97 13.53"/>
              <polygon class="cls-55" points="1307.19 13.53 263.8 1820.72 238.14 1805.91 1272.97 13.53 1307.19 13.53"/>
              <polygon class="cls-12" points="1341.41 13.53 289.47 1835.54 263.8 1820.72 1307.19 13.53 1341.41 13.53"/>
              <polygon class="cls-64" points="1375.63 13.53 315.13 1850.36 289.47 1835.54 1341.41 13.53 1375.63 13.53"/>
              <polygon class="cls-1" points="1381.94 13.53 1402.87 25.61 340.8 1865.18 315.13 1850.36 1375.63 13.53 1381.94 13.53"/>
              <rect class="cls-71" x="-177.4" y="937.99" width="2124.15" height="29.64" transform="translate(-382.82 1242.55) rotate(-60)"/>
              <rect class="cls-11" x="-151.74" y="952.81" width="2124.15" height="29.64" transform="translate(-382.82 1272.18) rotate(-60)"/>
              <rect class="cls-70" x="-126.07" y="967.62" width="2124.15" height="29.64" transform="translate(-382.82 1301.82) rotate(-60)"/>
              <rect class="cls-47" x="-100.41" y="982.44" width="2124.15" height="29.64" transform="translate(-382.82 1331.46) rotate(-60)"/>
              <rect class="cls-13" x="-74.74" y="997.26" width="2124.15" height="29.64" transform="translate(-382.82 1361.1) rotate(-60)"/>
              <rect class="cls-51" x="-49.07" y="1012.08" width="2124.15" height="29.64" transform="translate(-382.82 1390.73) rotate(-60)"/>
              <rect class="cls-9" x="-23.41" y="1026.9" width="2124.15" height="29.64" transform="translate(-382.82 1420.37) rotate(-60)"/>
              <rect class="cls-17" x="2.26" y="1041.72" width="2124.15" height="29.64" transform="translate(-382.82 1450) rotate(-60)"/>
              <rect class="cls-10" x="27.92" y="1056.53" width="2124.15" height="29.64" transform="translate(-382.82 1479.64) rotate(-60)"/>
              <rect class="cls-60" x="53.59" y="1071.35" width="2124.15" height="29.64" transform="translate(-382.82 1509.28) rotate(-60)"/>
              <rect class="cls-2" x="79.26" y="1086.17" width="2124.15" height="29.64" transform="translate(-382.82 1538.92) rotate(-60)"/>
              <rect class="cls-76" x="104.92" y="1100.99" width="2124.15" height="29.64" transform="translate(-382.82 1568.55) rotate(-60)"/>
              <rect class="cls-73" x="130.59" y="1115.81" width="2124.15" height="29.64" transform="translate(-382.82 1598.19) rotate(-60)"/>
              <rect class="cls-14" x="156.25" y="1130.62" width="2124.15" height="29.64" transform="translate(-382.82 1627.82) rotate(-60)"/>
              <rect class="cls-4" x="181.92" y="1145.44" width="2124.15" height="29.64" transform="translate(-382.82 1657.46) rotate(-60)"/>
              <polygon class="cls-78" points="1787.86 247.89 1813.53 262.71 759.84 2087.74 726.29 2087.74 725.79 2087.45 1787.86 247.89"/>
              <polygon class="cls-54" points="1813.53 262.71 1839.19 277.52 794.06 2087.74 759.84 2087.74 1813.53 262.71"/>
              <polygon class="cls-58" points="1839.19 277.52 1864.86 292.34 828.29 2087.74 794.06 2087.74 1839.19 277.52"/>
              <polygon class="cls-33" points="1864.86 292.34 1890.53 307.16 862.51 2087.74 828.29 2087.74 1864.86 292.34"/>
              <polygon class="cls-35" points="1890.53 307.16 1916.19 321.98 896.73 2087.74 862.51 2087.74 1890.53 307.16"/>
              <polygon class="cls-72" points="1916.19 321.98 1941.86 336.8 930.95 2087.74 896.73 2087.74 1916.19 321.98"/>
              <polygon class="cls-25" points="1941.86 336.8 1967.52 351.62 965.17 2087.74 930.95 2087.74 1941.86 336.8"/>
              <polygon class="cls-39" points="1967.52 351.62 1993.19 366.43 999.39 2087.74 965.17 2087.74 1967.52 351.62"/>
              <polygon class="cls-57" points="1993.19 366.43 2018.86 381.25 1033.61 2087.74 999.39 2087.74 1993.19 366.43"/>
              <polygon class="cls-75" points="2018.86 381.25 2044.52 396.07 1067.84 2087.74 1033.61 2087.74 2018.86 381.25"/>
              <polygon class="cls-52" points="2044.52 396.07 2070.19 410.89 1102.06 2087.74 1067.84 2087.74 2044.52 396.07"/>
              <polygon class="cls-56" points="2070.19 410.89 2087.74 421.02 2087.74 439.76 1136.28 2087.74 1102.06 2087.74 2070.19 410.89"/>
              <polygon class="cls-49" points="2087.74 499.03 1170.5 2087.74 1136.28 2087.74 2087.74 439.76 2087.74 499.03"/>
              <polygon class="cls-15" points="2087.74 558.3 1204.72 2087.74 1170.5 2087.74 2087.74 499.03 2087.74 558.3"/>
              <polygon class="cls-5" points="2087.74 617.58 1238.94 2087.74 1204.72 2087.74 2087.74 558.3 2087.74 617.58"/>
              <polygon class="cls-74" points="2087.74 676.85 1273.16 2087.74 1238.94 2087.74 2087.74 617.58 2087.74 676.85"/>
              <polygon class="cls-62" points="2087.74 736.12 1307.39 2087.74 1273.16 2087.74 2087.74 676.85 2087.74 736.12"/>
              <polygon class="cls-59" points="2087.74 795.4 1341.61 2087.74 1307.39 2087.74 2087.74 736.12 2087.74 795.4"/>
              <polygon class="cls-23" points="2087.74 854.67 1375.83 2087.74 1341.61 2087.74 2087.74 795.4 2087.74 854.67"/>
              <polygon class="cls-16" points="2087.74 913.94 1410.05 2087.74 1375.83 2087.74 2087.74 854.67 2087.74 913.94"/>
              <polygon class="cls-6" points="2087.74 973.22 1444.27 2087.74 1410.05 2087.74 2087.74 913.94 2087.74 973.22"/>
              <polygon class="cls-28" points="2087.74 1032.49 1478.49 2087.74 1444.27 2087.74 2087.74 973.22 2087.74 1032.49"/>
              <polygon class="cls-46" points="2087.74 1091.76 1512.71 2087.74 1478.49 2087.74 2087.74 1032.49 2087.74 1091.76"/>
              <polygon class="cls-31" points="2087.74 1151.04 1546.93 2087.74 1512.71 2087.74 2087.74 1091.76 2087.74 1151.04"/>
              <polygon class="cls-7" points="2087.74 1210.31 1581.16 2087.74 1546.93 2087.74 2087.74 1151.04 2087.74 1210.31"/>
              <polygon class="cls-34" points="2087.74 1269.58 1615.38 2087.74 1581.16 2087.74 2087.74 1210.31 2087.74 1269.58"/>
              <polygon class="cls-50" points="2087.74 1328.85 1649.6 2087.74 1615.38 2087.74 2087.74 1269.58 2087.74 1328.85"/>
              <polygon class="cls-50" points="1649.6 2087.74 2087.74 1328.85 2087.74 2087.74 1649.6 2087.74"/>
            </g>
            <path class="cls-67" d="M1050.64,2101.27c-195.3,0-385.9-54-551.18-156.14C186.72,1752.21,0,1417.81,0,1050.64,0,471.31,471.31,0,1050.64,0c175.69,0,349.54,44.23,502.76,127.91,337.94,184.44,547.87,538,547.87,922.72,0,579.32-471.31,1050.64-1050.64,1050.64ZM1050.64,27.06C486.23,27.06,27.05,486.23,27.05,1050.64c0,357.72,181.91,683.51,486.6,871.48,161.03,99.51,346.7,152.11,536.98,152.11,564.4,0,1023.58-459.18,1023.58-1023.58,0-374.82-204.53-719.29-533.78-898.98-149.26-81.52-318.63-124.61-489.8-124.61Z"/>
          </g>
          <polygon class="cls-19" points="1046.1 910.14 1103.23 1025.9 1230.97 1044.46 1138.53 1134.56 1160.36 1261.79 1046.1 1201.72 931.84 1261.79 953.66 1134.56 861.22 1044.46 988.97 1025.9 1046.1 910.14"/>
          <ellipse class="cls-30" cx="353.53" cy="678.69" rx="221.37" ry="105.47" transform="translate(-376.36 448.77) rotate(-45)"/>
          <ellipse class="cls-30" cx="650.61" cy="386.12" rx="85.01" ry="57.64" transform="translate(-82.47 573.14) rotate(-45)"/>
          <g class="cls-42">
            <path class="cls-29" d="M2087.74,1050.64c0,572.75-464.35,1037.11-1037.11,1037.11-158.7,0-308.62-46.72-308.62-46.72-127.49-40.04-237.51-102.59-235.45-107.41.35-.82,4.1-.33,57.89,17.36,59.65,19.62,109.51,36.95,146.56,50.1,0,0,97.85,23.54,220.86,23.54,572.75,0,1037.11-464.35,1037.11-1037.11,0-141.68-30.66-256.93-46.44-307.89-93.07-299.41-299.41-476.08-375.61-539.84,322.22,175.86,540.83,517.83,540.83,910.85Z"/>
          </g>
        </g>
      </g>
    </g>
  </g>
</svg>