<?xml version="1.0" encoding="UTF-8"?>
<svg id="Layer_2" xmlns="http://www.w3.org/2000/svg" viewBox="0 0 605.91 149.87">
  <defs>
    <style>
      .cls-1 {
        fill: #58a5a5;
      }

      .cls-2 {
        fill: #62aaa3;
      }

      .cls-3 {
        fill: #cae3ad;
      }
    </style>
  </defs>
  <g id="Layer_1-2" data-name="Layer_1">
    <g>
      <path class="cls-2" d="M298.67,86.87c4.8-9.02,14.88-13.9,24.95-12.11,10.07,1.8,17.85,9.84,19.29,19.95.66-6.29,4.37-11.83,9.92-14.92,5.51-3.09,12.22-3.32,17.92-.59-1.13-1.95-1.33-4.37-.47-6.48.86-2.11,2.62-3.71,4.8-4.37.12-4.02,2.3-7.73,5.78-9.8,3.48-2.11,7.77-2.27,11.36-.47-22.92-13.82-37.72-76.19,56.39-37.41-45.3-41.08-123.01-18.55-90.64,46.27-7.15-3.67-15.89-1.09-19.95,5.82-5.62-7.93-15.85-11.13-25.03-7.85-9.14,3.28-15,12.26-14.33,21.95Z"/>
      <path class="cls-1" d="M208.19,129.51c-9.25,7.97,36.39,3.98,63.57.23,47.88,6.25,65.29,4.73,41.35-1.72,21.67-7.73,113.64,8.47,104.42.47,24.68,5.97,42.14,2.73,21.44-4.22,30.93-4.26,53.11,9.22,70.06,2.23,44.36,14.41,59.63,1.76,30.89-17.42-7.07-.74-15.23-.47-24.41,1.21,5.15-10.66,2.5-23.51-6.52-31.24-9.02-7.73-22.1-8.4-31.87-1.64-3.63-25.38-14.53-44.09-28.51-56.74-94.11-38.78-79.31,23.59-56.39,37.41-3.59-1.8-7.89-1.64-11.36.47-3.48,2.07-5.66,5.78-5.78,9.8-2.19.66-3.94,2.26-4.8,4.37-.86,2.11-.66,4.53.47,6.48-5.7-2.73-12.42-2.5-17.92.59-5.55,3.08-9.25,8.63-9.92,14.92-1.44-10.11-9.22-18.16-19.29-19.95-10.08-1.8-20.15,3.09-24.95,12.11-8.4-4.92-18.82-5-27.26-.16-8.47,4.84-13.67,13.86-13.63,23.59-16.44,9.88-46.24,10.43-71.7,9.22h-.04c-58.18,14.45-6.25,10.7,22.14,10Z"/>
      <path class="cls-3" d="M1.18,142.13c67.05,12.5,167.88-.98,190.29-.27,22.42.7,138.71,11.6,192.17,4.1,53.46-7.46,115.16-.74,155.93,3.01,33.47,3.05,40.96-2.46,63.65-3.9,2.85-.16,3.71-3.91,1.25-5.35-7.18-4.3-12.46-9.29-36.86-7.58,8.16-5.55-2.58-20.46-27.69-23.04,28.74,19.17,13.47,31.83-30.89,17.42-16.95,6.99-39.13-6.48-70.06-2.23,20.7,6.95,3.24,10.19-21.44,4.22,9.22,8.01-82.75-8.2-104.42-.47,23.94,6.44,6.52,7.97-41.35,1.72-27.18,3.75-72.83,7.73-63.57-.23-28.39.7-80.33,4.45-22.14-10-28.16-1.37-50.96-4.8-44.67-.12,11.95,8.98-.74,15.7-44.13,15.7-32.65,0-76.3,2.77-95.87,4.14-1.72.12-1.87,2.58-.2,2.89Z"/>
      <path class="cls-2" d="M374.3,18.09c0,3.1,7.53,5.61,16.82,5.61s16.83-2.51,16.83-5.61-7.53-5.61-16.83-5.61-16.82,2.51-16.82,5.61Z"/>
      <path class="cls-2" d="M301.77,81.65c0,2.48,4.35,4.49,9.72,4.49s9.72-2.01,9.72-4.49-4.35-4.49-9.72-4.49-9.72,2.01-9.72,4.49Z"/>
      <path class="cls-2" d="M268.49,91.37c0,2.27,3.68,4.11,8.23,4.11s8.23-1.84,8.23-4.11-3.68-4.11-8.23-4.11-8.23,1.84-8.23,4.11Z"/>
      <path class="cls-2" d="M477.12,82.96c0,2.99,5.77,5.42,12.9,5.42s12.9-2.43,12.9-5.42-5.78-5.42-12.9-5.42-12.9,2.43-12.9,5.42Z"/>
      <path class="cls-2" d="M515.63,113.43c0,1.03,4.77,1.87,10.66,1.87s10.66-.84,10.66-1.87-4.77-1.87-10.66-1.87-10.66.84-10.66,1.87Z"/>
      <path class="cls-2" d="M386.64,36.6c0,4.23,14.15,7.66,31.59,7.66s31.59-3.43,31.59-7.66-14.15-7.66-31.59-7.66-31.59,3.43-31.59,7.66Z"/>
      <path class="cls-2" d="M409.45,46.69c0,3.41,11.05,6.17,24.68,6.17s24.68-2.76,24.68-6.17-11.05-6.17-24.68-6.17-24.68,2.76-24.68,6.17Z"/>
      <path class="cls-2" d="M396.92,86.93c0,5.26,14.83,9.52,33.12,9.52s33.12-4.26,33.12-9.52-14.83-9.52-33.12-9.52-33.12,4.26-33.12,9.52Z"/>
      <path class="cls-2" d="M368.69,94.67c0,4.23,11.58,7.66,25.87,7.66s25.87-3.43,25.87-7.66-11.58-7.66-25.87-7.66-25.87,3.43-25.87,7.66Z"/>
    </g>
  </g>
</svg>