<?xml version="1.0" encoding="UTF-8"?>
<svg id="Layer_2" xmlns="http://www.w3.org/2000/svg" viewBox="0 0 843.88 398.1">
  <defs>
    <style>
      .cls-1 {
        fill: #469c94;
      }

      .cls-2 {
        fill: #56a5a1;
      }

      .cls-3 {
        fill: #63aba7;
      }

      .cls-4 {
        fill: #6bafa4;
      }

      .cls-5 {
        fill: #74adb3;
      }

      .cls-6 {
        fill: #cae3ad;
      }
    </style>
  </defs>
  <g id="nuvem">
    <g>
      <path class="cls-3" d="M775.73,226.17c-43.75,23.04-96.09,22.79-139.62-.53,31.44,19.35,31.2,69.57-28.47,43.44-36.01,13.34-76.54.09-97.54-32.02-40.26,27.32-93.98,23.21-129.57-9.93-2.1,9.42-9.59,16.72-19.03,18.48-9.54,1.81-19.17-2.14-24.56-10.08-14.09,10.89-32.39,14.7-49.61,10.24-17.22-4.46-31.38-16.55-38.44-32.92-28.13,95.68-246.76,46.09-201.52-44.34,16.54-6.37,35.24-6.72,52.8.04-6.46-2.12-10.62-8.37-10.14-15.15.56-6.76,5.57-12.28,12.25-13.46-5.47-3.2-10.36-7.74-14.44-12.98,1.85-14.56,11.4-27.36,25.39-33.03,16.78-6.72,35.96-1.87,47.45,12.12,8.26-28.61,28.46-52.3,55.38-65.03,20.37-9.71,43.25-12.42,64.99-8.02,25.19,23.18,42.88,57.12,47.98,95.66,5.03-18.56,23.95-29.76,42.74-25.34,9.52-18.47,20.32-34.08,31.89-47.13,46.48-24.19,104.91-16.49,143.6,22.57,11.27-3.2,23.29-1.71,33.46,4.09,10.15,5.88,17.42,15.58,20.37,26.87,28-9.36,58.39-8.21,85.58,3.23,21.89-23.21,52.38-36.47,84.33-36.68,23.25-.16,45.81,6.65,64.86,19.17,0,0,.08.02.06.1,18.74,32.96,6.47,82.41-60.21,130.63Z"/>
      <path class="cls-2" d="M34.38,203.77c33.2,64.5,120.66,69.79,146.59,10.84,22.72,32.93,74.51,6.89,67.53-45.83,23.67,55.15,58.51,76.86,80.13,52.21,22.1,6.09,31.84-1.78,33.14-20.31,9.03,34.36,55.95,22.06,60.2,1.1,35.67,31.33,62.69,49.59,87.13,9.92,40.99,45.17,130.02,79.88,113.77-12.74,48.35,40.65,108.43,48.79,151.85,38.01,0,0-132.57,100.89-271.32,57.38-245.99-5.64-421.79,46.4-469.02-90.57Z"/>
      <path class="cls-4" d="M835.89,95.45c-19.05-12.53-41.61-19.34-64.86-19.17-31.95.21-62.44,13.47-84.33,36.68-27.19-11.45-57.59-12.59-85.58-3.23-2.95-11.29-10.22-20.99-20.37-26.87-10.17-5.8-22.2-7.29-33.46-4.09-38.69-39.05-97.11-46.76-143.6-22.57,87.34-99.1,218.28-50.79,193.74,19.68,20.22-5.65,41.9.71,55.75,16.49,78.95-55.27,157.91-40.51,182.72,3.09Z"/>
      <path class="cls-4" d="M281.06,33c-21.74-4.4-44.62-1.69-64.99,8.02-26.92,12.73-47.12,36.42-55.38,65.03-11.49-13.99-30.66-18.84-47.45-12.12-13.99,5.66-23.54,18.46-25.39,33.03-26.28-33.7-20.79-98.24,59.71-53.33C163.91,24.98,185.15-9.21,234.23,5.69c17.28,5.21,33.21,14.7,46.83,27.31Z"/>
      <path class="cls-1" d="M687.38,304.2c2.73,10.5-3.3,21.27-13.73,24.42-.14,13.91-7.25,26.8-18.96,34.24-11.79,7.42-26.46,8.41-39.09,2.59-20.8,13.21-45.02,19.13-68.87,17.34-21.37-8-41.71-19.28-60.4-33.68-42.55,16.36-90.47,9.62-126.84-17.89-4.98,6.76-13.29,10.26-21.58,8.93-8.29-1.33-15.16-7.25-17.76-15.17-10.25,4.1-20.7,7.66-31.18,10.64-22.31-7.16-41.7-22.06-54.42-42.17-1.18,5.62-5.34,10.28-10.83,12-5.52,1.79-11.58.42-15.8-3.54-41.77,18.93-90.94,7.13-119.57-28.69-20.93,16.14-48.48,19.53-72.26,9.97-.08-.02-.06-.1-.06-.1-17.95-22.6-21.5-54.28-7.19-80.78,8.61-16.06,22.56-27.72,38.54-33.81-45.24,90.43,173.39,140.02,201.52,44.34,7.06,16.37,21.22,28.46,38.44,32.92,17.22,4.46,35.52.65,49.61-10.24,5.39,7.94,15.03,11.89,24.56,10.08,9.44-1.75,16.94-9.06,19.03-18.48,35.59,33.14,89.31,37.26,129.57,9.93,21,32.1,61.53,45.36,97.54,32.02,59.67,26.13,59.91-24.09,28.47-43.44,43.53,23.32,95.87,23.58,139.62.53,8.4,2.92,14.77,9.86,16.98,18.43,2.21,8.57-.06,17.7-6,24.31,5.36,2.27,10.28,5.34,14.57,8.99-3.31,67.77-66.34,65.27-113.91,26.3Z"/>
      <path class="cls-6" d="M288.98,335.63c-87.09,24.94-181.26,11.37-258.2-38.5-5.67-4.07-10.53-8.76-14.7-13.94,23.78,9.56,51.33,6.17,72.26-9.97,28.64,35.82,77.8,47.62,119.57,28.69,4.22,3.96,10.28,5.34,15.8,3.54,5.5-1.72,9.65-6.38,10.83-12,12.72,20.11,32.11,35.01,54.42,42.17Z"/>
      <path class="cls-6" d="M796.8,367.44c-17.02,11.65-39.05,13.21-57.48,3.91-4.65,2.43-9.38,4.72-14.16,6.76-29.68,13.14-61.17,19.75-92.63,19.98-29.22.3-58.33-4.88-85.79-15.3,23.83,1.83,48.06-4.08,68.88-17.31,12.6,5.81,27.29,4.81,39.05-2.59,11.72-7.46,18.81-20.33,18.97-34.29,10.44-3.12,16.45-13.88,13.75-24.39,47.54,38.98,110.57,41.45,113.89-26.31,11,9.32,18.15,22.58,19.62,37.28,2.1,20.53-7.13,40.61-24.1,52.27Z"/>
      <path class="cls-5" d="M577.4,31.77c-1.25,5.19-15.78,6.16-32.45,2.16-16.67-4-29.18-11.46-27.94-16.65,1.25-5.19,15.78-6.16,32.45-2.16,16.68,4,29.18,11.46,27.94,16.65Z"/>
      <path class="cls-5" d="M244.11,24.55c-.79,3.28-10.29,3.81-21.22,1.19-10.93-2.62-19.16-7.41-18.37-10.69.79-3.28,10.29-3.81,21.22-1.19,10.94,2.62,19.16,7.41,18.37,10.69Z"/>
      <path class="cls-5" d="M129.44,79.22c-.85,3.55-8.86,4.68-17.88,2.52-9.02-2.17-15.64-6.8-14.79-10.35.85-3.55,8.86-4.68,17.88-2.51,9.02,2.16,15.64,6.8,14.79,10.35Z"/>
      <path class="cls-4" d="M833.35,112.56c-1.31,5.47-11.68,7.67-23.17,4.91-11.48-2.76-19.72-9.42-18.41-14.89,1.31-5.47,11.68-7.67,23.16-4.91,11.48,2.76,19.73,9.42,18.41,14.89Z"/>
      <path class="cls-4" d="M516.5,67.41c-.59,2.46-13.48,1.48-28.79-2.2-15.31-3.67-27.24-8.65-26.65-11.11.59-2.46,13.48-1.48,28.79,2.2,15.31,3.67,27.24,8.65,26.65,11.11Z"/>
      <path class="cls-4" d="M148.21,105.71c-.33,1.37-7.02.93-14.95-.97-7.93-1.9-14.09-4.55-13.76-5.92.33-1.37,7.02-.93,14.95.97,7.93,1.9,14.09,4.55,13.76,5.92Z"/>
      <path class="cls-4" d="M628.64,130.61c7.15-6.82,16.93-10.16,26.76-9.14,9.83,1.03,18.71,6.33,24.28,14.48,3.22-4.11,9.13-4.92,13.34-1.83,4.21,3.09,5.2,8.97,2.24,13.27-2.96,4.3-8.81,5.47-13.2,2.64-12.34,7.45-28.11,5.89-38.76-3.84-1.96,5.25-7.3,8.43-12.84,7.65-5.55-.78-9.8-5.31-10.24-10.89-.44-5.58,3.07-10.72,8.43-12.35Z"/>
      <path class="cls-4" d="M136.77,152.4c3.35-8.39,9.91-15.11,18.21-18.67,8.31-3.56,17.69-3.68,26.08-.32,5.22,1.9,8.18,7.41,6.89,12.81s-6.44,8.97-11.95,8.29c4.49,5.26,3.97,13.15-1.18,17.78-5.15,4.63-13.04,4.31-17.8-.72-1.49,20.41-15.57,37.71-35.24,43.32-9.45-.12-17.09-7.76-17.19-17.21-.1-9.45,7.37-17.26,16.82-17.57-5.39-2.5-8.93-7.81-9.17-13.74-.24-5.94,2.85-11.51,8.01-14.45,5.16-2.94,11.54-2.74,16.51.5Z"/>
      <path class="cls-4" d="M432.75,124.11c-7.99,20.15-28.94,32.01-50.32,28.48-6.61-1.37-11.83-6.43-13.4-13-1.57-6.56.78-13.44,6.04-17.66,5.26-4.22,12.49-5.02,18.55-2.06-1.03-4.46.24-9.13,3.39-12.45,3.15-3.31,7.76-4.82,12.26-4.01-.1-5.99,3.26-11.51,8.64-14.16,5.38-2.65,11.8-1.95,16.49,1.79-1.97-7.15.52-14.78,6.32-19.41,5.8-4.62,13.79-5.34,20.33-1.84,6.53,3.51,10.34,10.58,9.69,17.96,4.41-2.06,9.66-.8,12.65,3.04,9.02-3.03,18.98-.48,25.42,6.52,6.44,7,8.16,17.14,4.39,25.88-3.77,8.74-12.33,14.43-21.85,14.55-8.21,8.42-20.24,11.9-31.68,9.16-11.43-2.74-20.58-11.31-24.07-22.53l-2.86-.27Z"/>
      <path class="cls-6" d="M245.66,266.77c54.51,45.54,140.19,33.12,155.26,7.42,16.47,18.61,33.93,11.28,36.73,6.2,6.79,26.23,115.61,43.97,133.48,15.28,25.2,28.03,68.86,22.81,79.69,6.04-7.84,32.67-56.76,29.3-82.01,10.16-28.43,22.49-135.62,19.8-171.18-19.62-49.28,24.3-112.67,17.98-151.97-25.48Z"/>
      <path class="cls-6" d="M384.26,259.07c19.32,25.84,43.27,42.18,81.18,16.73-33.81,8.38-65.75-.86-81.18-16.73Z"/>
      <path class="cls-6" d="M376.13,312.07c11.22,15,25.12,24.49,47.14,9.72-19.63,4.86-38.18-.5-47.14-9.72Z"/>
      <path class="cls-6" d="M654.6,283.76c29.7,7.13,66.36-6.06,75.83-23.68,21.92,6.83,29.26.22,33.26-7.72,4-7.94,24.23,3.72.97,24.31-23.26,20.59-36.51,3.8-36.51,3.8,0,0-28.21,19.4-73.55,3.29Z"/>
      <path class="cls-2" d="M159.38,203.14c21.64,16.71,31.54,6,38.92-9.51-7.78,38.96-32.17,31.54-38.92,9.51Z"/>
      <path class="cls-2" d="M347.6,197.53c14.63,6.65,36.77-2.69,44.15-18.2-23.82,40.35-30.55,33.5-44.15,18.2Z"/>
      <path class="cls-2" d="M493.14,208.38c15.48,5.29,31.68,7.6,52.74-10.38-11.16,33.44-42.07,29.16-52.74,10.38Z"/>
      <path class="cls-2" d="M607.22,195.45c15.13,6.77,39.46-5.19,51.81-17.41-28.87,41.76-48.05,23.54-51.81,17.41Z"/>
      <path class="cls-6" d="M65.43,255.98c15.32,14.67,40.66,20.36,53.46,12.83-37.8,26.65-51.51-2.94-53.46-12.83Z"/>
      <path class="cls-6" d="M220.47,288.86c12.55,4.97,23.34.89,28.45-7.31-8.51,30.54-27.1,13.13-28.45,7.31Z"/>
      <path class="cls-6" d="M667.71,300c12.18,4.88,25.09.13,30.66-8.35-5.4,25.79-25.23,15.15-30.66,8.35Z"/>
      <path class="cls-6" d="M588.78,354.08c19.04,5.75,36.04,11.79,57.3-11.38-21.14,36.54-38.75,28.98-57.3,11.38Z"/>
      <path class="cls-4" d="M162.88,339.04c-.54,2.25-15.77.53-34.02-3.85-18.25-4.38-32.6-9.76-32.06-12.01.54-2.26,15.77-.53,34.02,3.85,18.25,4.38,32.6,9.76,32.06,12.01Z"/>
      <path class="cls-4" d="M199.59,338.23c-.42,1.74-6.74,1.72-14.12-.05-7.38-1.77-13.03-4.62-12.61-6.36.42-1.74,6.74-1.72,14.12.05,7.38,1.77,13.02,4.62,12.61,6.36Z"/>
      <path class="cls-4" d="M607.46,390.76c-.33,1.37-4.47,1.54-9.26.4-4.78-1.15-8.4-3.19-8.07-4.55s4.47-1.54,9.26-.4c4.78,1.15,8.4,3.19,8.07,4.55Z"/>
      <path class="cls-4" d="M773.45,370.91c-.52,2.19-7.04,2.5-14.56.69-7.52-1.8-13.19-5.04-12.66-7.23.52-2.19,7.04-2.5,14.56-.69,7.52,1.8,13.19,5.04,12.66,7.23Z"/>
      <path class="cls-5" d="M464.25,77.91c-.39,1.64-3.81,2.22-7.64,1.31-3.83-.92-6.61-2.99-6.22-4.63.39-1.64,3.82-2.23,7.64-1.31,3.83.92,6.61,2.99,6.22,4.63Z"/>
      <path class="cls-5" d="M506.36,105.29c-.33,1.37-5.03,1.41-10.49.1-5.47-1.31-9.63-3.48-9.3-4.85.33-1.37,5.03-1.41,10.49-.1,5.47,1.31,9.63,3.48,9.3,4.85Z"/>
      <path class="cls-5" d="M398.38,129.89c-.36,1.5-4.53,1.79-9.32.64-4.78-1.15-8.37-3.3-8.01-4.8.36-1.5,4.53-1.79,9.32-.64,4.78,1.15,8.37,3.3,8.01,4.8Z"/>
      <path class="cls-5" d="M182.64,143.29c-.53,2.19-5.6,2.84-11.34,1.46-5.74-1.38-9.97-4.27-9.44-6.45.52-2.19,5.6-2.84,11.34-1.47,5.74,1.38,9.97,4.27,9.44,6.45Z"/>
      <path class="cls-5" d="M135.32,159.42c-.49,2.05-3.55,3.07-6.83,2.29-3.28-.79-5.54-3.09-5.05-5.14.49-2.05,3.55-3.07,6.83-2.29,3.28.79,5.54,3.09,5.05,5.14Z"/>
      <path class="cls-5" d="M672.02,134.83c-.62,2.6-6.67,3.37-13.5,1.73-6.83-1.64-11.87-5.07-11.25-7.67.62-2.6,6.67-3.37,13.5-1.73,6.83,1.64,11.87,5.07,11.25,7.67Z"/>
      <path class="cls-5" d="M639.41,87.48c-.46,1.91-6.04,2.22-12.46.67-6.42-1.54-11.26-4.34-10.8-6.26.46-1.91,6.04-2.21,12.46-.67,6.42,1.54,11.26,4.34,10.8,6.26Z"/>
      <path class="cls-5" d="M827.39,109.04c-.39,1.64-5.48,1.83-11.35.42-5.88-1.41-10.32-3.88-9.93-5.52.39-1.64,5.48-1.83,11.35-.42,5.88,1.41,10.32,3.88,9.93,5.52Z"/>
      <path class="cls-4" d="M725.16,378.11c-29.68,13.14-61.17,19.75-92.63,19.98,19.37-7.19,29.44-21.32,56.49-22.26,13.22-.43,24.95.76,36.14,2.29Z"/>
    </g>
  </g>
</svg>