<?xml version="1.0" encoding="UTF-8"?>
<svg id="Layer_2" xmlns="http://www.w3.org/2000/svg" viewBox="0 0 918.01 227.06">
  <defs>
    <style>
      .cls-1 {
        fill: #3c9397;
      }

      .cls-2 {
        fill: #4e9ca0;
      }

      .cls-3 {
        fill: #63aba7;
      }

      .cls-4 {
        fill: #52a29e;
      }
    </style>
  </defs>
  <g id="Layer_1-2" data-name="Layer_1">
    <g>
      <path class="cls-4" d="M465.51,131.62c-7.28-13.67-22.54-21.06-37.81-18.34-15.26,2.72-27.04,14.91-29.23,30.23-1.01-9.53-6.63-17.93-15.03-22.6-8.34-4.67-18.52-5.03-27.16-.89,1.72-2.96,2.01-6.63.71-9.82-1.3-3.19-3.96-5.62-7.28-6.63-.18-6.09-3.49-11.71-8.76-14.85-5.27-3.19-11.77-3.43-17.22-.71,34.73-20.94,57.15-115.43-85.43-56.68,68.63-62.24,186.37-28.1,137.32,70.11,10.83-5.56,24.08-1.66,30.23,8.82,8.52-12.01,24.02-16.86,37.92-11.89,13.84,4.97,22.72,18.58,21.71,33.25Z"/>
      <path class="cls-2" d="M602.59,196.22c14.02,12.07-55.14,6.03-96.32.36-72.54,9.47-98.92,7.16-62.65-2.6-32.84-11.71-172.17,12.84-158.21.71-37.39,9.05-63.84,4.14-32.48-6.39-46.86-6.45-80.46,13.96-106.14,3.37-67.21,21.83-90.34,2.66-46.8-26.39,10.71-1.12,23.07-.71,36.98,1.83-7.81-16.15-3.79-35.62,9.88-47.33,13.67-11.71,33.49-12.72,48.28-2.49,5.5-38.46,22.01-66.8,43.19-85.97,142.59-58.75,120.16,35.74,85.43,56.68,5.44-2.72,11.95-2.48,17.22.71,5.27,3.14,8.58,8.76,8.76,14.85,3.31,1.01,5.98,3.43,7.28,6.63,1.3,3.19,1.01,6.86-.71,9.82,8.64-4.14,18.81-3.79,27.16.89,8.4,4.67,14.02,13.08,15.03,22.6,2.19-15.32,13.96-27.51,29.23-30.23,15.26-2.72,30.53,4.67,37.81,18.34,12.72-7.45,28.52-7.57,41.3-.24,12.84,7.34,20.71,21,20.65,35.74,24.91,14.97,70.05,15.8,108.63,13.96h.06c88.15,21.89,9.47,16.21-33.55,15.15Z"/>
      <path class="cls-1" d="M916.22,215.34c-101.59,18.93-254.35-1.48-288.31-.41-33.96,1.06-210.15,17.57-291.15,6.21-81-11.3-174.48-1.12-236.24,4.56-50.7,4.61-62.06-3.73-96.44-5.92-4.32-.24-5.62-5.92-1.89-8.11,10.89-6.51,18.87-14.08,55.85-11.48-12.37-8.4,3.91-31,41.95-34.91-43.55,29.05-20.41,48.22,46.8,26.39,25.68,10.59,59.28-9.82,106.14-3.37-31.36,10.53-4.91,15.44,32.48,6.39-13.96,12.13,125.37-12.43,158.21-.71-36.27,9.76-9.88,12.07,62.65,2.6,41.18,5.68,110.34,11.71,96.32-.36,43.01,1.06,121.7,6.74,33.55-15.15,42.66-2.07,77.21-7.28,67.68-.18-18.1,13.61,1.12,23.78,66.86,23.78,49.46,0,115.61,4.2,145.25,6.27,2.6.18,2.84,3.91.3,4.38Z"/>
      <path class="cls-3" d="M376.97,40.43c0,7.2-3.55,13.03-7.93,13.03s-7.93-5.83-7.93-13.03,3.55-13.03,7.93-13.03,7.93,5.83,7.93,13.03Z"/>
      <path class="cls-3" d="M399.63,108.98c0,2.19-4.18,3.96-9.35,3.96s-9.35-1.77-9.35-3.96,4.18-3.97,9.35-3.97,9.35,1.78,9.35,3.97Z"/>
      <path class="cls-3" d="M444.38,103.31c0,2.19-3.68,3.96-8.21,3.96s-8.21-1.78-8.21-3.96,3.68-3.97,8.21-3.97,8.21,1.78,8.21,3.97Z"/>
      <ellipse class="cls-4" cx="325.42" cy="27.41" rx="25.49" ry="8.5"/>
      <path class="cls-3" d="M460.81,123.71c0,3.75-6.59,6.8-14.73,6.8s-14.73-3.04-14.73-6.8,6.59-6.8,14.73-6.8,14.73,3.04,14.73,6.8Z"/>
      <ellipse class="cls-4" cx="498.76" cy="138.43" rx="12.46" ry="6.23"/>
      <path class="cls-4" d="M195.13,125.69c0,4.54-8.75,8.21-19.54,8.21s-19.54-3.68-19.54-8.21,8.75-8.21,19.54-8.21,19.54,3.68,19.54,8.21Z"/>
      <path class="cls-4" d="M136.79,171.86c0,1.56-7.23,2.83-16.14,2.83s-16.14-1.27-16.14-2.83,7.23-2.83,16.14-2.83,16.14,1.27,16.14,2.83Z"/>
      <path class="cls-4" d="M332.22,55.45c0,6.41-21.43,11.61-47.87,11.61s-47.87-5.2-47.87-11.61,21.43-11.61,47.87-11.61,47.87,5.2,47.87,11.61Z"/>
      <path class="cls-4" d="M297.66,70.74c0,5.16-16.74,9.35-37.39,9.35s-37.39-4.18-37.39-9.35,16.74-9.35,37.39-9.35,37.39,4.18,37.39,9.35Z"/>
      <path class="cls-4" d="M316.65,131.71c0,7.97-22.47,14.43-50.18,14.43s-50.18-6.46-50.18-14.43,22.47-14.43,50.18-14.43,50.18,6.46,50.18,14.43Z"/>
      <path class="cls-4" d="M359.41,143.44c0,6.41-17.55,11.61-39.2,11.61s-39.2-5.2-39.2-11.61,17.55-11.61,39.2-11.61,39.2,5.2,39.2,11.61Z"/>
      <path class="cls-3" d="M298.8,126.54c0,1.88-10.53,3.4-23.51,3.4s-23.51-1.52-23.51-3.4,10.52-3.4,23.51-3.4,23.51,1.52,23.51,3.4Z"/>
      <path class="cls-3" d="M310.69,51.76c0,1.88-9.26,3.4-20.68,3.4s-20.68-1.52-20.68-3.4,9.26-3.4,20.68-3.4,20.68,1.52,20.68,3.4Z"/>
      <path class="cls-3" d="M346.95,139c0,1.25-5.2,2.27-11.61,2.27s-11.61-1.01-11.61-2.27,5.2-2.27,11.61-2.27,11.61,1.01,11.61,2.27Z"/>
      <path class="cls-3" d="M188.9,125.97c0,1.56-3.55,2.83-7.93,2.83s-7.93-1.27-7.93-2.83,3.55-2.83,7.93-2.83,7.93,1.27,7.93,2.83Z"/>
    </g>
  </g>
</svg>