<?xml version="1.0" encoding="UTF-8"?>
<svg id="Layer_2" xmlns="http://www.w3.org/2000/svg" viewBox="0 0 559.76 157.08">
  <defs>
    <style>
      .cls-1 {
        fill: #58a5a5;
      }

      .cls-2 {
        fill: #62aaa3;
      }

      .cls-3 {
        fill: #cae3ad;
      }
    </style>
  </defs>
  <g id="Layer_1-2" data-name="Layer_1">
    <g>
      <path class="cls-1" d="M8.04,125.33c36.38,12.97,85.74,22.04,163.93,14.35,1.3-.14,2.54.69,2.88,1.99.34,1.24-.27,2.54-1.44,3.16-.82.34-1.24,1.24-1.03,2.13.27.89,1.03,1.44,1.92,1.37,36.52-1.92,65.56-7.55,85.6-12.7,2.33-.55,4.81.69,5.63,2.88.89,2.27,0,4.87-2.13,5.97-1.92,1.03-3.91,2.06-5.97,3.16-2.13,1.1-3.23,3.57-2.54,5.83.69,2.33,2.95,3.84,5.35,3.57,61.51-6.8,139.08-3.16,193.51-1.17,1.72.07,3.23-1.17,3.5-2.81.27-1.72-.69-3.36-2.33-3.84-16.2-5.15-28.83-10.98-28.83-10.98,0,0,62.61,4.53,123.08,2.33,5.42-.14,9.89-4.26,10.5-9.68.62-5.35-2.81-10.43-8.03-11.81-.27-.07-.62-.14-.89-.27-34.94-9.34-77.02-20.18-172.58-21.21,7.69-19.84,4.12-42.22-9.27-58.62-13.46-16.48-34.67-24.44-55.6-20.87-20.94,3.57-38.31,18.12-45.51,38.1-6.73-7.35-16.27-11.6-26.22-11.67-10.02-.07-19.56,4.05-26.43,11.33C203,16.18,162.22-7.29,121.86,2.04c-40.43,9.41-66.66,48.4-60.14,89.38-8.92,2.13-18.6,4.39-28.83,6.52-7.41,1.58-15.03,3.02-22.93,4.32-12.22,1.99-13.59,18.88-1.92,23.07Z"/>
      <path class="cls-2" d="M93.63,25.02c0,8.35,13.24,15.12,29.58,15.12s29.58-6.77,29.58-15.12-13.24-15.12-29.58-15.12-29.58,6.77-29.58,15.12Z"/>
      <path class="cls-2" d="M218.5,59.85c0,3.63,6.77,6.57,15.12,6.57s15.12-2.94,15.12-6.57-6.77-6.57-15.12-6.57-15.12,2.94-15.12,6.57Z"/>
      <path class="cls-2" d="M293.43,37.51c0,7.26,8.53,13.15,19.06,13.15s19.06-5.89,19.06-13.15-8.53-13.14-19.06-13.14-19.06,5.88-19.06,13.14Z"/>
      <path class="cls-2" d="M367.04,112.44c0,2.18,18.83,3.94,42.06,3.94s42.06-1.76,42.06-3.94-18.83-3.94-42.06-3.94-42.06,1.77-42.06,3.94Z"/>
      <path class="cls-3" d="M8.04,125.33c36.38,12.97,85.74,22.04,163.93,14.35,1.3-.14,2.54.69,2.88,1.99.34,1.24-.27,2.54-1.44,3.16-.82.34-1.24,1.24-1.03,2.13.27.89,1.03,1.44,1.92,1.37,36.52-1.92,65.56-7.55,85.6-12.7,2.33-.55,4.81.69,5.63,2.88.89,2.27,0,4.87-2.13,5.97-1.92,1.03-3.91,2.06-5.97,3.16-2.13,1.1-3.23,3.57-2.54,5.83.69,2.33,2.95,3.84,5.35,3.57,61.51-6.8,139.08-3.16,193.51-1.17,1.72.07,3.23-1.17,3.5-2.81.27-1.72-.69-3.36-2.33-3.84-16.2-5.15-28.83-10.98-28.83-10.98,0,0,62.61,4.53,123.08,2.33,5.42-.14,9.89-4.26,10.5-9.68.62-5.35-2.81-10.43-8.03-11.81-.27-.07-.62-.14-.89-.27-52.45,22.31-123.7-.34-156.1,14.69-36.79,17.02-94.66,18.4-116.97-15.79-59.17,19.7-51.28-24.99-102.56-5.29-42.97,16.54-129.33,6.25-142.24-14.48-7.41,1.58-15.03,3.02-22.93,4.32-12.22,1.99-13.59,18.88-1.92,23.07Z"/>
      <path class="cls-3" d="M314.14,115.35c-22.11,5.96-39,2.24-56.64-15.4,22.36,41.23,42.72,21.36,56.64,15.4Z"/>
      <path class="cls-3" d="M142.92,94.69c-34.18,11.83-53.24.66-58.5-9.2,10.52,28.26,33.52,26.29,58.5,9.2Z"/>
    </g>
  </g>
</svg>